<mxfile host="app.diagrams.net" modified="2024-04-26T03:05:09.710Z" agent="Mozilla/5.0 (Windows NT 10.0; Win64; x64) AppleWebKit/537.36 (KHTML, like Gecko) Chrome/124.0.0.0 Safari/537.36 Edg/124.0.0.0" etag="-_OREGPLmSuMjDb0H_E2" version="24.2.7" type="github">
  <diagram name="第 1 页" id="YERSJ-m_TpH6B-dYFLAf">
    <mxGraphModel dx="865" dy="490" grid="1" gridSize="10" guides="1" tooltips="1" connect="1" arrows="1" fold="1" page="1" pageScale="1" pageWidth="827" pageHeight="1169" math="0" shadow="0">
      <root>
        <mxCell id="0" />
        <mxCell id="1" parent="0" />
        <mxCell id="1SMbYiFEvnhnjyQf1Uhm-1" value="" style="rounded=0;whiteSpace=wrap;html=1;" vertex="1" parent="1">
          <mxGeometry x="106" y="60" width="260" height="40" as="geometry" />
        </mxCell>
        <mxCell id="1SMbYiFEvnhnjyQf1Uhm-2" value="" style="triangle;whiteSpace=wrap;html=1;rotation=-90;fillColor=#fff2cc;strokeColor=#d6b656;" vertex="1" parent="1">
          <mxGeometry x="116" y="65" width="30" height="30" as="geometry" />
        </mxCell>
        <mxCell id="1SMbYiFEvnhnjyQf1Uhm-3" value="" style="triangle;whiteSpace=wrap;html=1;rotation=-90;fillColor=#fff2cc;strokeColor=#d6b656;" vertex="1" parent="1">
          <mxGeometry x="146" y="65" width="30" height="30" as="geometry" />
        </mxCell>
        <mxCell id="1SMbYiFEvnhnjyQf1Uhm-4" value="" style="triangle;whiteSpace=wrap;html=1;rotation=-90;fillColor=#f5f5f5;fontColor=#333333;strokeColor=#666666;" vertex="1" parent="1">
          <mxGeometry x="176" y="65" width="30" height="30" as="geometry" />
        </mxCell>
        <mxCell id="1SMbYiFEvnhnjyQf1Uhm-5" value="" style="triangle;whiteSpace=wrap;html=1;rotation=-90;fillColor=#f8cecc;strokeColor=#b85450;" vertex="1" parent="1">
          <mxGeometry x="206" y="65" width="30" height="30" as="geometry" />
        </mxCell>
        <mxCell id="1SMbYiFEvnhnjyQf1Uhm-6" value="" style="triangle;whiteSpace=wrap;html=1;rotation=-90;fillColor=#f8cecc;strokeColor=#b85450;" vertex="1" parent="1">
          <mxGeometry x="236" y="65" width="30" height="30" as="geometry" />
        </mxCell>
        <mxCell id="1SMbYiFEvnhnjyQf1Uhm-7" value="。。。" style="text;html=1;align=center;verticalAlign=middle;whiteSpace=wrap;rounded=0;" vertex="1" parent="1">
          <mxGeometry x="286" y="70" width="60" height="30" as="geometry" />
        </mxCell>
        <mxCell id="1SMbYiFEvnhnjyQf1Uhm-8" value="Input" style="text;html=1;align=center;verticalAlign=middle;whiteSpace=wrap;rounded=0;" vertex="1" parent="1">
          <mxGeometry x="30" y="65" width="60" height="30" as="geometry" />
        </mxCell>
        <mxCell id="1SMbYiFEvnhnjyQf1Uhm-10" value="" style="rounded=0;whiteSpace=wrap;html=1;" vertex="1" parent="1">
          <mxGeometry x="110" y="185" width="390" height="40" as="geometry" />
        </mxCell>
        <mxCell id="1SMbYiFEvnhnjyQf1Uhm-11" value="" style="triangle;whiteSpace=wrap;html=1;rotation=-90;fillColor=#fff2cc;strokeColor=#d6b656;" vertex="1" parent="1">
          <mxGeometry x="480" y="50" width="30" height="30" as="geometry" />
        </mxCell>
        <mxCell id="1SMbYiFEvnhnjyQf1Uhm-12" value="" style="triangle;whiteSpace=wrap;html=1;rotation=-90;fillColor=#f5f5f5;fontColor=#333333;strokeColor=#666666;" vertex="1" parent="1">
          <mxGeometry x="480" y="90" width="30" height="30" as="geometry" />
        </mxCell>
        <mxCell id="1SMbYiFEvnhnjyQf1Uhm-13" value="" style="triangle;whiteSpace=wrap;html=1;rotation=-90;fillColor=#f8cecc;strokeColor=#b85450;" vertex="1" parent="1">
          <mxGeometry x="480" y="140" width="30" height="30" as="geometry" />
        </mxCell>
        <mxCell id="1SMbYiFEvnhnjyQf1Uhm-14" value="normal tris" style="text;html=1;align=center;verticalAlign=middle;whiteSpace=wrap;rounded=0;" vertex="1" parent="1">
          <mxGeometry x="520" y="50" width="60" height="30" as="geometry" />
        </mxCell>
        <mxCell id="1SMbYiFEvnhnjyQf1Uhm-15" value="culled tris" style="text;html=1;align=center;verticalAlign=middle;whiteSpace=wrap;rounded=0;" vertex="1" parent="1">
          <mxGeometry x="520" y="90" width="60" height="30" as="geometry" />
        </mxCell>
        <mxCell id="1SMbYiFEvnhnjyQf1Uhm-16" value="cliping tris" style="text;html=1;align=center;verticalAlign=middle;whiteSpace=wrap;rounded=0;" vertex="1" parent="1">
          <mxGeometry x="520" y="140" width="60" height="30" as="geometry" />
        </mxCell>
        <mxCell id="1SMbYiFEvnhnjyQf1Uhm-17" value="" style="triangle;whiteSpace=wrap;html=1;rotation=-90;fillColor=#fff2cc;strokeColor=#d6b656;" vertex="1" parent="1">
          <mxGeometry x="116" y="190" width="30" height="30" as="geometry" />
        </mxCell>
        <mxCell id="1SMbYiFEvnhnjyQf1Uhm-18" value="" style="triangle;whiteSpace=wrap;html=1;rotation=-90;fillColor=#fff2cc;strokeColor=#d6b656;" vertex="1" parent="1">
          <mxGeometry x="146" y="190" width="30" height="30" as="geometry" />
        </mxCell>
        <mxCell id="1SMbYiFEvnhnjyQf1Uhm-19" value="" style="triangle;whiteSpace=wrap;html=1;rotation=-90;fillColor=#f5f5f5;fontColor=#333333;strokeColor=#666666;" vertex="1" parent="1">
          <mxGeometry x="176" y="190" width="30" height="30" as="geometry" />
        </mxCell>
        <mxCell id="1SMbYiFEvnhnjyQf1Uhm-21" value="" style="endArrow=none;html=1;entryX=0.5;entryY=0;entryDx=0;entryDy=0;exitX=0.5;exitY=1;exitDx=0;exitDy=0;" edge="1" parent="1">
          <mxGeometry width="50" height="50" relative="1" as="geometry">
            <mxPoint x="309.99999999999994" y="225" as="sourcePoint" />
            <mxPoint x="309.99999999999994" y="185" as="targetPoint" />
          </mxGeometry>
        </mxCell>
        <mxCell id="1SMbYiFEvnhnjyQf1Uhm-22" style="rounded=0;orthogonalLoop=1;jettySize=auto;html=1;exitX=0;exitY=0.5;exitDx=0;exitDy=0;entryX=1;entryY=0.5;entryDx=0;entryDy=0;" edge="1" parent="1" source="1SMbYiFEvnhnjyQf1Uhm-2" target="1SMbYiFEvnhnjyQf1Uhm-17">
          <mxGeometry relative="1" as="geometry" />
        </mxCell>
        <mxCell id="1SMbYiFEvnhnjyQf1Uhm-23" style="rounded=0;orthogonalLoop=1;jettySize=auto;html=1;exitX=0;exitY=0.5;exitDx=0;exitDy=0;entryX=1;entryY=0.5;entryDx=0;entryDy=0;" edge="1" parent="1" source="1SMbYiFEvnhnjyQf1Uhm-3" target="1SMbYiFEvnhnjyQf1Uhm-18">
          <mxGeometry relative="1" as="geometry" />
        </mxCell>
        <mxCell id="1SMbYiFEvnhnjyQf1Uhm-24" style="rounded=0;orthogonalLoop=1;jettySize=auto;html=1;exitX=0;exitY=0.5;exitDx=0;exitDy=0;entryX=1;entryY=0.5;entryDx=0;entryDy=0;" edge="1" parent="1" source="1SMbYiFEvnhnjyQf1Uhm-4" target="1SMbYiFEvnhnjyQf1Uhm-19">
          <mxGeometry relative="1" as="geometry" />
        </mxCell>
        <mxCell id="1SMbYiFEvnhnjyQf1Uhm-25" value="。。。" style="text;html=1;align=center;verticalAlign=middle;whiteSpace=wrap;rounded=0;" vertex="1" parent="1">
          <mxGeometry x="260.33" y="190" width="60" height="30" as="geometry" />
        </mxCell>
        <mxCell id="1SMbYiFEvnhnjyQf1Uhm-26" value="output" style="text;html=1;align=center;verticalAlign=middle;whiteSpace=wrap;rounded=0;" vertex="1" parent="1">
          <mxGeometry x="30" y="190" width="60" height="30" as="geometry" />
        </mxCell>
        <mxCell id="1SMbYiFEvnhnjyQf1Uhm-27" value="" style="triangle;whiteSpace=wrap;html=1;rotation=-90;fillColor=#f8cecc;strokeColor=#b85450;" vertex="1" parent="1">
          <mxGeometry x="320.33000000000004" y="195.07999999999998" width="20.33" height="20" as="geometry" />
        </mxCell>
        <mxCell id="1SMbYiFEvnhnjyQf1Uhm-28" value="" style="triangle;whiteSpace=wrap;html=1;rotation=-90;fillColor=#f8cecc;strokeColor=#b85450;" vertex="1" parent="1">
          <mxGeometry x="345.67" y="194.92" width="20.33" height="20" as="geometry" />
        </mxCell>
        <mxCell id="1SMbYiFEvnhnjyQf1Uhm-29" value="" style="triangle;whiteSpace=wrap;html=1;rotation=-90;fillColor=#f8cecc;strokeColor=#b85450;" vertex="1" parent="1">
          <mxGeometry x="370" y="195.07999999999998" width="20.33" height="20" as="geometry" />
        </mxCell>
        <mxCell id="1SMbYiFEvnhnjyQf1Uhm-30" value="" style="triangle;whiteSpace=wrap;html=1;rotation=-90;fillColor=#f8cecc;strokeColor=#b85450;" vertex="1" parent="1">
          <mxGeometry x="393" y="195.07999999999998" width="20.33" height="20" as="geometry" />
        </mxCell>
        <mxCell id="1SMbYiFEvnhnjyQf1Uhm-32" style="rounded=0;orthogonalLoop=1;jettySize=auto;html=1;exitX=0;exitY=0.5;exitDx=0;exitDy=0;entryX=1;entryY=0.5;entryDx=0;entryDy=0;" edge="1" parent="1" source="1SMbYiFEvnhnjyQf1Uhm-5" target="1SMbYiFEvnhnjyQf1Uhm-38">
          <mxGeometry relative="1" as="geometry" />
        </mxCell>
        <mxCell id="1SMbYiFEvnhnjyQf1Uhm-36" value="。。。" style="text;html=1;align=center;verticalAlign=middle;whiteSpace=wrap;rounded=0;" vertex="1" parent="1">
          <mxGeometry x="434.33" y="190" width="60" height="30" as="geometry" />
        </mxCell>
        <mxCell id="1SMbYiFEvnhnjyQf1Uhm-42" style="edgeStyle=orthogonalEdgeStyle;rounded=0;orthogonalLoop=1;jettySize=auto;html=1;exitX=0;exitY=0.5;exitDx=0;exitDy=0;entryX=0.5;entryY=1;entryDx=0;entryDy=0;fillColor=#0050ef;strokeColor=#001DBC;" edge="1" parent="1" source="1SMbYiFEvnhnjyQf1Uhm-38" target="1SMbYiFEvnhnjyQf1Uhm-52">
          <mxGeometry relative="1" as="geometry" />
        </mxCell>
        <mxCell id="1SMbYiFEvnhnjyQf1Uhm-38" value="" style="triangle;whiteSpace=wrap;html=1;rotation=-90;fillColor=#f8cecc;strokeColor=#b85450;" vertex="1" parent="1">
          <mxGeometry x="206" y="190" width="30" height="30" as="geometry" />
        </mxCell>
        <mxCell id="1SMbYiFEvnhnjyQf1Uhm-54" style="edgeStyle=orthogonalEdgeStyle;rounded=0;orthogonalLoop=1;jettySize=auto;html=1;exitX=0;exitY=0.5;exitDx=0;exitDy=0;entryX=0.5;entryY=1;entryDx=0;entryDy=0;fillColor=#0050ef;strokeColor=#001DBC;" edge="1" parent="1" source="1SMbYiFEvnhnjyQf1Uhm-39" target="1SMbYiFEvnhnjyQf1Uhm-53">
          <mxGeometry relative="1" as="geometry">
            <Array as="points">
              <mxPoint x="251" y="270" />
              <mxPoint x="405" y="270" />
            </Array>
          </mxGeometry>
        </mxCell>
        <mxCell id="1SMbYiFEvnhnjyQf1Uhm-39" value="" style="triangle;whiteSpace=wrap;html=1;rotation=-90;fillColor=#f8cecc;strokeColor=#b85450;" vertex="1" parent="1">
          <mxGeometry x="236" y="190" width="30" height="30" as="geometry" />
        </mxCell>
        <mxCell id="1SMbYiFEvnhnjyQf1Uhm-40" value="" style="triangle;whiteSpace=wrap;html=1;rotation=-90;fillColor=#f8cecc;strokeColor=#b85450;" vertex="1" parent="1">
          <mxGeometry x="420" y="194.92" width="20.33" height="20" as="geometry" />
        </mxCell>
        <mxCell id="1SMbYiFEvnhnjyQf1Uhm-41" style="edgeStyle=orthogonalEdgeStyle;rounded=0;orthogonalLoop=1;jettySize=auto;html=1;exitX=0;exitY=0.5;exitDx=0;exitDy=0;entryX=1;entryY=0.5;entryDx=0;entryDy=0;" edge="1" parent="1" source="1SMbYiFEvnhnjyQf1Uhm-6" target="1SMbYiFEvnhnjyQf1Uhm-39">
          <mxGeometry relative="1" as="geometry" />
        </mxCell>
        <mxCell id="1SMbYiFEvnhnjyQf1Uhm-49" style="rounded=0;orthogonalLoop=1;jettySize=auto;html=1;exitX=0.5;exitY=0;exitDx=0;exitDy=0;" edge="1" parent="1" source="1SMbYiFEvnhnjyQf1Uhm-48">
          <mxGeometry relative="1" as="geometry">
            <mxPoint x="220" y="240" as="targetPoint" />
          </mxGeometry>
        </mxCell>
        <mxCell id="1SMbYiFEvnhnjyQf1Uhm-48" value="triHeader[taskIdx].misc+triSubtris[taskIdx]" style="text;html=1;align=center;verticalAlign=middle;whiteSpace=wrap;rounded=0;" vertex="1" parent="1">
          <mxGeometry x="101" y="290" width="60" height="30" as="geometry" />
        </mxCell>
        <mxCell id="1SMbYiFEvnhnjyQf1Uhm-51" style="rounded=0;orthogonalLoop=1;jettySize=auto;html=1;exitX=0.5;exitY=0;exitDx=0;exitDy=0;" edge="1" parent="1" source="1SMbYiFEvnhnjyQf1Uhm-48">
          <mxGeometry relative="1" as="geometry">
            <mxPoint x="250" y="270" as="targetPoint" />
            <mxPoint x="141" y="300" as="sourcePoint" />
          </mxGeometry>
        </mxCell>
        <mxCell id="1SMbYiFEvnhnjyQf1Uhm-52" value="" style="rounded=0;whiteSpace=wrap;html=1;fillColor=none;" vertex="1" parent="1">
          <mxGeometry x="315.84" y="190" width="54.16" height="30" as="geometry" />
        </mxCell>
        <mxCell id="1SMbYiFEvnhnjyQf1Uhm-53" value="" style="rounded=0;whiteSpace=wrap;html=1;fillColor=none;" vertex="1" parent="1">
          <mxGeometry x="370" y="189.92" width="70" height="30" as="geometry" />
        </mxCell>
        <mxCell id="1SMbYiFEvnhnjyQf1Uhm-56" value="queue rear" style="text;html=1;align=center;verticalAlign=middle;whiteSpace=wrap;rounded=0;" vertex="1" parent="1">
          <mxGeometry x="277" y="130" width="69" height="30" as="geometry" />
        </mxCell>
        <mxCell id="1SMbYiFEvnhnjyQf1Uhm-58" style="edgeStyle=orthogonalEdgeStyle;rounded=0;orthogonalLoop=1;jettySize=auto;html=1;exitX=0.5;exitY=1;exitDx=0;exitDy=0;entryX=0.516;entryY=-0.058;entryDx=0;entryDy=0;entryPerimeter=0;" edge="1" parent="1" source="1SMbYiFEvnhnjyQf1Uhm-56" target="1SMbYiFEvnhnjyQf1Uhm-10">
          <mxGeometry relative="1" as="geometry">
            <Array as="points">
              <mxPoint x="311" y="171" />
            </Array>
          </mxGeometry>
        </mxCell>
      </root>
    </mxGraphModel>
  </diagram>
</mxfile>
